# xmcd
#
# Track frame offsets: 
#        150
#        16202
#        33447
#        48067
#        62820
#        77290
#        93785
#        110040
#        127225
#        141710
#        158102
#        171820
#        186805
#        203022
#        220907
#        234732
#        251927
#        267255
#        285835
#        298742
#
# Disc length: 4166 seconds
#
# Revision: 3
# Processed by: cddbd v1.5.2PL0 Copyright (c) Steve Scherf et al.
# Submitted via: ExactAudioCopy v0.99pb5
#
DISCID=25104414,29104414
DTITLE=Various Artist - DIE SCHLAGER DES JAHRES - FOLGE 5
DYEAR=2000
DGENRE=
TTITLE0=01 WOLFGANG PETRY  - Da Geht Mir Voll Einer Ab (Radio Version)
TTITLE0=(2000)
TTITLE1=02 ANTONIA FEAT. SANDRA - Ich Bin Viel Schöner...! (Radio Mix)
TTITLE1=(2000)
TTITLE2=03 BERNHARD BRINK - Wo bist du
TTITLE3=04 G. G. ANDERSON - Nein Heißt Ja
TTITLE4=05 KRISTINA BACH - Männer Sind Doch Schließlich Zum Vergnügen 
TTITLE4=Da (2000)
TTITLE5=06 LEONARD - Laß Ich Dich Heut Geh´n?
TTITLE6=07 BRUNNER and BRUNNER - Ti Amo (2000)
TTITLE7=08 ANTON FEAT. DJ ÖTZI - Anton Aus Tirol (Party-Mix) (1999)
TTITLE8=09 GABY BAGINSKY - Bodyguard (2000)
TTITLE9=10 JÜRGEN DREWS - Wieder Alles Im Griff (1999)
TTITLE10=11 OLSEN BROTHERS - Fly On The Wings Of Love (2000)
TTITLE11=12 BLÜMCHEN - Ist Deine Liebe Echt? (Disco 2000 Radio Mix) (2
TTITLE11=000)
TTITLE12=13 RONNY KRAPPMANN - Flammen Der Liebe (2000)
TTITLE13=14 NINO DE ANGELO - Schwindelfrei (Radio Edit) (2000)
TTITLE14=15 IREEN SHEER - Ein Kuß Von Dir
TTITLE15=16 KARAT - Über Sieben Brücken Mußt Du Gehn (1979)
TTITLE16=17 FERNANDO EXPRESS - Casanova
TTITLE17=18 MATTHIAS REIM - Lebenslänglich (2000)
TTITLE18=19 TOMMY STEINER - Anita Tanz! (2000)
TTITLE19=20 BERNHARD BRINK - Vorbei Ist Vorbei
EXTD=
EXTT0=
EXTT1=
EXTT2=
EXTT3=
EXTT4=
EXTT5=
EXTT6=
EXTT7=
EXTT8=
EXTT9=
EXTT10=
EXTT11=
EXTT12=
EXTT13=
EXTT14=
EXTT15=
EXTT16=
EXTT17=
EXTT18=
EXTT19=
PLAYORDER=
